<?xml version="1.0" encoding="utf-8"?>
<!-- Generator: Adobe Illustrator 16.0.0, SVG Export Plug-In . SVG Version: 6.00 Build 0)  -->
<!DOCTYPE svg PUBLIC "-//W3C//DTD SVG 1.0//EN" "http://www.w3.org/TR/2001/REC-SVG-20010904/DTD/svg10.dtd">
<svg version="1.0" id="Layer_1" xmlns="http://www.w3.org/2000/svg" xmlns:xlink="http://www.w3.org/1999/xlink" x="0px" y="0px"
	 width="396px" height="43px" viewBox="-205.755 -497.627 396 43" enable-background="new -205.755 -497.627 396 43"
	 xml:space="preserve">
<g>
	<g>
		<g>
			<path fill="#FFFFFF" d="M-191.285-475.559c-0.668-0.722-1.559-1.199-2.671-1.433v-0.097c0.774-0.322,1.38-0.826,1.819-1.512
				c0.439-0.685,0.658-1.466,0.658-2.345c0-0.758-0.159-1.426-0.477-2.007c-0.318-0.58-0.8-1.044-1.445-1.39
				c-0.597-0.322-1.234-0.534-1.916-0.635c-0.681-0.102-1.682-0.151-3.004-0.151h-6.358v18h7.205c1.249,0,2.279-0.113,3.088-0.339
				c0.811-0.225,1.554-0.604,2.23-1.137c0.573-0.442,1.028-1.003,1.366-1.68c0.338-0.678,0.508-1.463,0.508-2.357
				C-190.281-473.864-190.615-474.838-191.285-475.559z M-200.181-481.827L-200.181-481.827h0.314c0.806,0,1.412,0.007,1.819,0.019
				s0.759,0.083,1.058,0.211c0.314,0.138,0.546,0.359,0.695,0.665c0.148,0.307,0.224,0.604,0.224,0.895
				c0,0.396-0.069,0.742-0.206,1.04s-0.387,0.532-0.749,0.701c-0.331,0.153-0.651,0.237-0.961,0.254
				c-0.311,0.017-0.853,0.023-1.626,0.023h-0.568V-481.827z M-195.219-471.558c-0.188,0.343-0.489,0.603-0.9,0.779
				c-0.468,0.202-0.927,0.311-1.378,0.327c-0.451,0.016-1.266,0.024-2.441,0.024h-0.242v-4.51h0.834
				c0.807,0,1.448,0.006,1.928,0.019c0.479,0.012,0.856,0.07,1.131,0.175c0.451,0.162,0.789,0.399,1.016,0.714
				c0.226,0.313,0.339,0.749,0.339,1.305C-194.934-472.289-195.03-471.899-195.219-471.558z"/>
		</g>
	</g>
	<g>
		<path fill="#FFFFFF" d="M-146.08-484.127h-1.6c-1.76,0-2.4,0.4-2.4,1.6v3.2h4l-0.8,4h-3.2v11.2h-4.8v-11.2h-4v-4h4v-3.2
			c0-3.68,2.32-5.6,5.601-5.6c1.6,0,3.199,0,3.199,0V-484.127z"/>
	</g>
	<g>
		<g>
			<path fill="#FFFFFF" d="M-101.594-476.127c-0.801,0-2.399,1.6-5.601,1.6c-3.199,0-4.799-1.6-5.6-1.6
				c-0.881,0-1.601,0.72-1.601,1.6c0,0.8,0.48,1.199,0.801,1.359c0.96,0.56,4,1.84,4,1.84l-3.44,4.32c0,0-0.641,0.72-0.641,1.28
				c0,0.88,0.721,1.6,1.601,1.6c0.801,0,1.2-0.56,1.2-0.56l3.68-4.239l3.601,4.239c0,0,0.399,0.56,1.199,0.56
				c0.88,0,1.601-0.72,1.601-1.6c0-0.48-0.64-1.28-0.64-1.28l-3.36-4.32c0,0,3.04-1.28,4-1.84c0.32-0.239,0.801-0.56,0.801-1.359
				C-99.994-475.407-100.715-476.127-101.594-476.127z"/>
			<path fill="#FFFFFF" d="M-107.195-476.926c3.12,0,5.601-2.48,5.601-5.601c0-3.12-2.48-5.6-5.601-5.6c-3.119,0-5.6,2.48-5.6,5.6
				C-112.795-479.407-110.314-476.926-107.195-476.926z M-107.195-485.328c1.52,0,2.8,1.28,2.8,2.801c0,1.52-1.28,2.8-2.8,2.8
				s-2.799-1.28-2.799-2.8C-109.994-484.047-108.715-485.328-107.195-485.328z"/>
		</g>
	</g>
	<g>
		<path fill="#FFFFFF" d="M-74.125-485.127v18h23.859v-18H-74.125z M-52.963-483.462l-8.443,8.498
			c-0.178,0.179-0.451,0.282-0.752,0.282c-0.303,0-0.58-0.105-0.761-0.287l-8.382-8.493H-52.963z M-72.46-482.267l6.03,6.111
			l-6.03,6.166V-482.267z M-71.304-468.792l6.045-6.18l1.157,1.173c0.492,0.496,1.201,0.78,1.944,0.78
			c0.741,0,1.445-0.282,1.934-0.773l1.139-1.146l6.002,6.146H-71.304z M-51.929-469.993l-5.982-6.125l5.982-6.021V-469.993z"/>
	</g>
	<g>
		<g>
			<path fill="#FFFFFF" d="M13.605-488.127h-21.6c-1.324,0-2.4,1.076-2.4,2.4v19.199c0,1.323,1.076,2.4,2.4,2.4h21.6
				c1.323,0,2.4-1.077,2.4-2.4v-19.199C16.005-487.051,14.928-488.127,13.605-488.127z M13.605-483.327h-9.6v-2.399h9.6V-483.327z
				 M-1.995-483.327v-2.399h3.6v2.399H-1.995z M-4.395-485.727v2.399h-3.6v-2.399H-4.395z M-7.995-466.527v-14.399h21.599
				l-0.002,14.399H-7.995z"/>
			<polygon fill="#FFFFFF" points="5.557,-478.176 4.005,-479.727 4.005,-474.927 8.805,-474.927 7.253,-476.479 9.654,-478.879 
				7.956,-480.575 			"/>
			<polygon fill="#FFFFFF" points="8.805,-472.527 4.005,-472.527 4.005,-467.727 5.557,-469.278 7.956,-466.879 9.654,-468.575 
				7.253,-470.976 			"/>
			<polygon fill="#FFFFFF" points="-2.346,-480.575 -4.044,-478.879 -1.643,-476.479 -3.195,-474.927 1.605,-474.927 
				1.605,-479.727 0.053,-478.176 			"/>
			<polygon fill="#FFFFFF" points="-1.643,-470.976 -4.044,-468.575 -2.346,-466.879 0.053,-469.278 1.605,-467.727 1.605,-472.527 
				-3.195,-472.527 			"/>
		</g>
	</g>
	<g>
		<g>
			<path fill="#FFFFFF" d="M100.219-479.575h-9.655c-0.365,0-0.717,0.146-0.976,0.404l-1.783,1.783l-1.783-1.783
				c-0.259-0.259-0.61-0.404-0.976-0.404h-9.655c-0.761,0-1.379,0.618-1.379,1.379v17.932c0,0.762,0.618,1.379,1.379,1.379h9.084
				l2.355,2.354c0.269,0.27,0.621,0.404,0.975,0.404s0.706-0.135,0.975-0.404l2.355-2.354h9.084c0.761,0,1.379-0.617,1.379-1.379
				v-17.932C101.598-478.957,100.98-479.575,100.219-479.575z M85.046-461.645H76.77v-15.172h7.705l1.951,1.95v14.03l-0.404-0.404
				C85.763-461.499,85.411-461.645,85.046-461.645z M98.84-461.645h-8.276c-0.365,0-0.717,0.146-0.976,0.404l-0.404,0.404v-14.03
				l1.951-1.95h7.705V-461.645z"/>
			<polygon fill="#FFFFFF" points="82.287,-489.23 86.426,-489.23 86.426,-482.334 89.184,-482.334 89.184,-489.23 93.323,-489.23 
				93.323,-491.989 89.184,-491.989 89.184,-496.127 86.426,-496.127 86.426,-491.989 82.287,-491.989 			"/>
		</g>
	</g>
	<g>
		<g>
			<g>
				<path fill="#FFFFFF" d="M185.077-461.127l-7.272-5.454h-4.318c-1.128,0-2.046-0.918-2.046-2.046v-9.546
					c0-1.128,0.918-2.045,2.046-2.045h13.637c1.128,0,2.046,0.917,2.046,2.045v9.546c0,1.128-0.918,2.046-2.046,2.046h-2.046
					V-461.127z M174.169-469.309h4.545l3.637,2.728v-2.728h4.09v-8.182h-12.271V-469.309z"/>
			</g>
			<g>
				<path fill="#FFFFFF" d="M160.532-466.581v-5.455h-2.046c-1.128,0-2.046-0.917-2.046-2.045v-15c0-1.128,0.918-2.046,2.046-2.046
					h17.728c1.128,0,2.045,0.918,2.045,2.046v6.133h-2.727v-5.451h-16.363v13.636h4.09v2.728l3.637-2.728h1.817v2.728h-0.908
					L160.532-466.581z"/>
			</g>
		</g>
	</g>
</g>
</svg>
