<?xml version="1.0" encoding="utf-8"?>
<!-- Generator: Adobe Illustrator 16.0.0, SVG Export Plug-In . SVG Version: 6.00 Build 0)  -->
<!DOCTYPE svg PUBLIC "-//W3C//DTD SVG 1.0//EN" "http://www.w3.org/TR/2001/REC-SVG-20010904/DTD/svg10.dtd">
<svg version="1.0" id="Шар_1" xmlns="http://www.w3.org/2000/svg" xmlns:xlink="http://www.w3.org/1999/xlink" x="0px" y="0px"
	 width="104px" height="34px" viewBox="0 0 104 34" enable-background="new 0 0 104 34" xml:space="preserve">
<g>
	<path fill="#8B8B8B" d="M82.494,18.55c0.1-0.621,0.1-1.274,0.1-1.894c0-5.026-3.564-8.365-8.262-8.365
		c-4.059,0-7.041,2.256-8.135,5.677c-0.016,0.048-0.076,0.042-0.086-0.006c-0.643-3.638-3.209-5.808-6.738-5.808
		c-1.701,0-3.111,0.563-4.393,1.593C54.951,9.77,54.908,9.75,54.908,9.71v-8.74c0-0.026-0.02-0.047-0.045-0.047h-5.307
		c-0.024,0-0.045,0.021-0.045,0.047v24.347c0,0.027,0.021,0.048,0.045,0.048h5.307c0.025,0,0.045-0.021,0.045-0.048v-10.36
		c0-0.037,0.014-0.073,0.037-0.101c0.924-1.074,1.975-1.644,2.961-1.644c1.766,0,2.934,1.136,2.934,3.511v8.593
		c0,0.027,0.02,0.048,0.045,0.048h5.34c0.025,0,0.045-0.021,0.045-0.048v-4.853c0-0.052,0.066-0.063,0.086-0.015
		c1.227,3.21,4.211,5.294,8.209,5.294c3.975,0,7.063-2.144,7.85-5.598c0.008-0.03-0.016-0.06-0.045-0.06h-5.248
		c-0.016,0-0.029,0.008-0.037,0.021c-0.469,0.79-1.33,1.229-2.453,1.229c-2.037,0-3.166-1.138-3.613-2.622
		c-0.008-0.031,0.014-0.063,0.045-0.063h11.406L82.494,18.55z M70.994,15.382c-0.031,0-0.055-0.031-0.047-0.061
		c0.414-1.652,1.574-2.727,3.385-2.727c1.713,0,2.873,0.943,3.188,2.73c0.006,0.029-0.018,0.058-0.045,0.058H70.994z"/>
	<g opacity="0.7">
		<g>
			<defs>
				<rect id="SVGID_1_" x="0.916" y="8.221" width="48.596" height="24.855"/>
			</defs>
			<clipPath id="SVGID_2_">
				<use xlink:href="#SVGID_1_"  overflow="visible"/>
			</clipPath>
			<path clip-path="url(#SVGID_2_)" fill="#AAAAAA" d="M44.479,15.176l-3.031-0.517c-1.266-0.241-1.666-0.758-1.666-1.308
				c0-0.654,0.633-1.205,2.032-1.205c1.5,0,2.633,0.585,2.732,1.859h4.772c0.014,0,0.024-0.013,0.024-0.027
				c-0.248-4.385-4.138-5.757-7.563-5.757c-4.053,0-6.859,1.838-7.166,4.992l0,0c-1.227-3.05-4.108-4.923-7.626-4.923
				c-3.129,0-5.621,1.341-7.1,3.522c-0.017,0.023-0.049,0.006-0.037-0.021l1.261-3.09c0.007-0.016-0.005-0.033-0.021-0.033h-5.613
				c-0.01,0-0.019,0.005-0.021,0.015l-4.173,10.228c-0.007,0.02-0.033,0.021-0.042,0.001L6.64,8.683
				C6.636,8.675,6.628,8.669,6.618,8.669H0.939c-0.018,0-0.028,0.018-0.021,0.034l7.644,16.858c0.003,0.006,0.003,0.014,0,0.02
				l-3.048,7.462c-0.006,0.016,0.005,0.033,0.021,0.033h5.614c0.009,0,0.018-0.005,0.021-0.015l7.477-18.318
				c-0.161,0.713-0.255,1.465-0.255,2.257c0,5.094,3.532,8.744,8.83,8.744c3.264,0,5.926-1.448,7.211-3.852
				c0.009-0.017,0.031-0.016,0.039,0.003c1.163,2.796,4.059,3.986,7.476,3.986c4.198,0,7.563-1.79,7.563-5.646
				C49.512,17.275,47.513,15.761,44.479,15.176 M26.989,12.594c1.724,0,2.886,0.953,3.193,2.759
				c0.003,0.015-0.009,0.029-0.023,0.029h-6.538c-0.015,0-0.026-0.016-0.022-0.031C24.005,13.682,25.168,12.594,26.989,12.594
				 M29.649,20.087c-0.009,0-0.016,0.006-0.02,0.014c-0.332,0.756-1.249,1.236-2.341,1.236c-2.051,0-3.183-1.153-3.623-2.652
				c-0.004-0.016,0.008-0.032,0.023-0.032h11.442l0.021-0.103c0.1-0.621,0.1-1.274,0.1-1.894c0-0.097-0.01-0.189-0.013-0.285
				c0.792,1.334,2.247,2.138,4.077,2.454l3.265,0.585c1.066,0.173,1.565,0.62,1.565,1.171c0,0.723-0.865,1.171-2.299,1.171
				c-1.51,0-2.599-0.517-2.986-1.646c-0.003-0.009-0.011-0.016-0.021-0.016L29.649,20.087z"/>
		</g>
	</g>
	<g opacity="0.7">
		<g>
			<defs>
				<rect id="SVGID_3_" x="82.525" y="0.924" width="20.559" height="24.958"/>
			</defs>
			<clipPath id="SVGID_4_">
				<use xlink:href="#SVGID_3_"  overflow="visible"/>
			</clipPath>
			<path clip-path="url(#SVGID_4_)" fill="#AAAAAA" d="M98.053,15.176l-3.033-0.517c-1.266-0.241-1.666-0.757-1.666-1.308
				c0-0.654,0.633-1.205,2.033-1.205c1.49,0,2.619,0.579,2.73,1.838c0,0.012,0.01,0.021,0.021,0.021h4.752
				c0.014,0,0.025-0.012,0.023-0.026c-0.246-4.385-4.137-5.757-7.561-5.757c-4.299,0-7.197,2.065-7.197,5.577
				c0,2.926,1.934,4.544,4.73,5.027l3.266,0.585c1.066,0.172,1.566,0.619,1.566,1.17c0,0.724-0.865,1.171-2.299,1.171
				c-1.51,0-2.6-0.518-2.986-1.648c-0.004-0.009-0.012-0.016-0.021-0.016l-4.482-0.029c-0.014-0.001-0.023-0.012-0.023-0.024
				l0.018-11.34c0-0.013-0.01-0.024-0.023-0.024h-5.352c-0.012,0-0.023,0.011-0.023,0.024v16.648c0,0.014,0.012,0.024,0.023,0.024
				H87.9c0.014,0,0.023-0.011,0.023-0.024v-3.662c0-0.026,0.033-0.031,0.043-0.008c1.102,2.953,4.049,4.211,7.553,4.211
				c4.199,0,7.564-1.79,7.564-5.646C103.084,17.275,101.084,15.761,98.053,15.176"/>
			<path clip-path="url(#SVGID_4_)" fill="#AAAAAA" d="M87.939,3.617c0,1.487-1.213,2.693-2.707,2.693s-2.707-1.206-2.707-2.693
				s1.213-2.693,2.707-2.693S87.939,2.13,87.939,3.617"/>
		</g>
	</g>
</g>
</svg>
